<svg version="1.1" id="Layer_1" xmlns="http://www.w3.org/2000/svg" x="0" y="0" viewBox="0 0 92 50.4" style="enable-background:new 0 0 92 50.4" xml:space="preserve"><style>.st0{fill:#fff}</style><path class="st0" d="M7.2 14v30H19v5.7H0V14h7.2zM33.1 20.9c4.7 0 7.9 2.2 9.6 4.5v-4.1h7.4V50h-7.4v-4.2c-1.7 2.5-5.1 4.7-9.7 4.7-7.4 0-13.3-5.9-13.3-14.9.1-9 6-14.7 13.4-14.7zm1.9 6.3c-4 0-7.7 2.9-7.7 8.3S31 44 35 44c3.9 0 7.7-3 7.7-8.4S39 27.2 35 27.2zM76.3 29.7l-2.6 5.2-.2.3c.9.9 1.4 2.2 1.4 3.6 0 2.9-2.4 5.3-5.5 5.3h-8.9V14h-7.3v35.6h16.9c.9 0 1.7-.1 2.5-.3 5-1.1 8.7-5.4 8.7-10.6 0-3.7-2-7.1-5-9z"/><path class="st0" d="M81.3 14 69.7 36.8h-7.4l7.9-15.5h-7.9V14h19zM81.2 9.7c2.2-2.2 2.2-5.8 0-8.1s-5.8-2.2-8.1 0c-2.2 2.2-2.2 5.8 0 8.1 2.3 2.2 5.9 2.2 8.1 0zM92 4.2c0 1.3-.9 2.3-1.9 2.3-1 0-1.9-1-1.9-2.3s.9-2.3 1.9-2.3c1 0 1.9 1 1.9 2.3zM87.8 16.3c1.5 0 2.7-1.2 2.7-2.7S89.2 11 87.8 11s-2.7 1.2-2.7 2.7 1.2 2.6 2.7 2.6z"/></svg>